<svg xmlns="http://www.w3.org/2000/svg" xmlns:xlink="http://www.w3.org/1999/xlink" width="402.6" height="177.5" viewBox="0 0 402.6 177.5"><defs><path id="a" d="M16.3 6.5h375.9v150.4h-375.9z"/></defs><clipPath id="b"><use xlink:href="#a" overflow="visible"/></clipPath><path clip-path="url(#b)" fill="#009444" d="M16.3 90.6c4.1 6.9 8.8 13.3 14 19.1 5.2 5.8 10.9 11.1 17 15.6s12.6 8.4 19.3 11.6c6.7 3.2 13.7 5.9 20.7 8 7.1 2.1 14.3 3.7 21.5 4.9 7.2 1.2 14.6 1.9 21.9 2.3 7.3.4 14.7.5 22 .3 7.3-.2 14.7-.7 22-1.4 7.3-.7 14.6-1.7 21.9-2.8 7.3-1.2 14.5-2.5 21.7-4 14.4-3 28.8-6.7 43-10.9s28.3-9 42.3-14.1c7-2.6 13.9-5.3 20.8-8.1s13.8-5.8 20.5-8.9l4.2 1.7c.4.9.8 1.7 1.3 2.6l1.5 2.6 1.7 2.6c.6.9 1.2 1.7 1.8 2.5l1.8 2.5c.6.8 1.2 1.7 1.9 2.5l3.8 4.9 3.9 4.8c1.3 1.6 2.7 3.2 4 4.7l4.1 4.7c1.4 1.5 2.8 3.1 4.1 4.6l-5.3 4.8c-.9-1.7-1.8-3.5-2.5-5.3l-.5-1.4-.5-1.4c-.3-.9-.6-1.9-.8-2.8l-.7-2.9-.5-2.9c-.2-1-.2-1.9-.3-2.9l-.1-1.5c0-.5 0-1-.1-1.5l-.1-2.9v-2.9c.1-1.9.2-3.9.4-5.7.2-1.9.5-3.8.8-5.7l.5-2.8c.2-.9.4-1.8.6-2.8 1.6-7.3 4-14.4 6.7-21.2 1.4-3.4 2.9-6.7 4.5-10 .8-1.6 1.6-3.3 2.5-4.9.9-1.6 1.7-3.2 2.7-4.8l6 4.1c-1.7 3.5-4 6.3-6.4 8.7-2.4 2.4-5 4.4-7.7 6.2-5.3 3.6-10.9 6.4-16.5 8.8-2.8 1.2-5.7 2.3-8.5 3.4l-4.3 1.5-1.1.3c-.4.1-.8.2-1.1.3l-2.2.6c-5.8 1.6-11.8 2.8-17.7 3.8-5.9.9-11.9 1.7-17.8 2.1-6 .5-11.9.7-17.9.7-3 0-6 0-8.9-.1-3 0-5.9-.2-8.9-.3l-8.9-.5c-3-.3-5.9-.4-8.9-.8-5.9-.5-11.8-1.2-17.7-1.9-5.9-.7-11.8-1.4-17.7-2.5-5.9-1-11.9-2.3-17.7-4.2-5.8-2-11.7-4.6-17-8.6-2.6-2-5.1-4.5-7.2-7.3-2.1-2.8-3.8-6.1-4.9-9.5l-.8-2.6-.6-2.7-.4-2.7-.1-1.4-.1-1.4-.1-1.4v-1.2999999999999998l.1-2.5v-.8l.1-.7.1-1.3.3-2.6c1-6.7 2.4-13.2 4.3-19.7 1-3.2 2.1-6.5 3.5-9.6.7-1.6 1.6-3.2 2.6-4.7 1.1-1.5 2.4-3.2 4.7-4.2l2 6.1c-5.6 2.2-11 4.4-16.4 6.9-5.4 2.5-10.6 5.2-15.6 8.5-4.9 3.2-9.6 7-13.5 11.5-.5.6-1 1.1-1.4 1.7l-1.3 1.7-.6.9-.6 1-1.2 2-.2.3-.1.1v.1s-.1.2 0-.1l-.2.4-.4.9c-.2.6-.5 1.2-.6 1.9-.4 1.3-.5 2.8-.6 4.2-.1 5.8 1.8 12 4.9 16.9 1.6 2.4 3.5 4.6 5.6 6 1.1.7 2.2 1.2 3.3 1.4 1.1.2 2.2 0 3.3-.4 1.1-.4 2.1-1.2 3-2.1l.6-.7c.2-.3.4-.4.6-.8l.7-1 .3-.5v-.1l.1-.1.1-.2c.6-1.1.9-2.2.9-3.5 0-1.2-.3-2.5-.9-3.8-1.1-2.6-3-4.9-5-7-2.1-2.1-4.4-3.9-6.9-5.5-2.4-1.6-5-3-7.7-4-1.3-.5-2.5-.9-4-1l-4.3-.5c-5.8-.5-11.6-.5-17.4-.1-5.8.5-11.6 1.4-17.4 2.6-5.7 1.2-11.4 2.9-17 4.8-11.1 4-22 9.1-32.5 15.1-5.3 3-10.4 6.1-15.5 9.5-5 3.4-10 7-14.7 10.9zm0 0c4.6-4.1 9.5-7.8 14.4-11.4 5-3.6 10-7 15.2-10.1 10.4-6.3 21.2-11.7 32.5-16 5.6-2.1 11.3-4 17.1-5.4 5.8-1.4 11.7-2.5 17.6-3.1 5.9-.6 11.9-.7 17.9-.3l4.5.4c1.5.1 3.2.5 4.7 1.1 3 1.1 5.8 2.5 8.4 4.2 2.7 1.7 5.2 3.6 7.6 5.9 2.3 2.3 4.6 4.9 6.1 8.2.8 1.7 1.3 3.6 1.4 5.7.1 2.1-.5 4.2-1.4 5.9l-.2.3-.1.2-.1.2-.3.5-.6 1c-.5.7-1.1 1.5-1.7 2.1-1.2 1.3-2.7 2.5-4.4 3.2-1.7.7-3.6.9-5.4.7-1.8-.2-3.5-1-5-1.9-3-1.8-5.3-4.5-7.2-7.3-1.9-2.9-3.4-6.1-4.4-9.4-1.1-3.4-1.7-7-1.6-10.6.1-1.8.2-3.7.7-5.6l.8-2.7.6-1.3.3-.6.4-.6 1.2-2.1.6-1 .8-1.1 1.5-2.1c.5-.7 1.1-1.3 1.6-1.9 4.3-5 9.3-9.1 14.4-12.6 5.2-3.5 10.6-6.4 16.1-9.1 5.5-2.6 11.1-5 16.6-7.3l2 6.1c-.5.2-1.3 1-2 2.1s-1.4 2.4-2 3.7c-1.2 2.7-2.2 5.7-3.1 8.7-1.7 6.1-3 12.4-4 18.7-.1.8-.2 1.6-.3 2.3l-.1 1.1v1-.1l-.1 2.5v1.1l.1 1.1c.2 2.9.6 5.9 1.6 8.6 1.8 5.4 5.4 10 9.8 13.4 4.5 3.4 9.7 5.7 15.2 7.5 5.5 1.7 11.1 2.9 16.9 3.9 5.7.9 11.6 1.6 17.4 2.3 5.9.7 11.7 1.4 17.5 1.9 2.9.3 5.8.5 8.8.7 2.9.2 5.8.4 8.8.5 2.9.1 5.8.3 8.8.3 2.9.1 5.8.1 8.7.1 5.8-.1 11.6-.3 17.4-.8 5.8-.4 11.6-1.2 17.3-2.1 5.7-1 11.4-2.1 17-3.7l2.1-.6c.4-.1.7-.2 1-.3l1-.3c1.4-.4 2.7-.9 4.1-1.4 2.7-1 5.5-2 8.1-3.2 5.4-2.3 10.6-4.9 15.4-8.2 2.4-1.6 4.7-3.4 6.7-5.3 2-2 3.7-4.1 4.8-6.4l6 4.1c-.8 1.4-1.7 2.9-2.5 4.4-.8 1.5-1.6 3.1-2.3 4.6-1.5 3.1-2.9 6.3-4.3 9.5-2.6 6.4-4.8 13.1-6.4 19.9-.2.8-.4 1.7-.5 2.5l-.5 2.6c-.3 1.7-.6 3.4-.7 5.1-.2 1.7-.3 3.4-.4 5.1v2.6c0 .9.1 1.7.1 2.5 0 .4 0 .8.1 1.3l.1 1.3c.1.8.1 1.7.3 2.5l.4 2.5.6 2.4c.2.8.5 1.6.7 2.3.1.4.2.8.4 1.2l.5 1.1c.5 1.5 1.3 2.9 2 4.4l-5.3 4.8-4.2-4.7-4.1-4.8c-1.4-1.6-2.7-3.2-4.1-4.9l-4-4.9c-1.3-1.7-2.6-3.3-3.9-5.1-.7-.8-1.3-1.7-1.9-2.6l-1.9-2.6-1.8-2.7-1.8-2.8-1.7-2.9c-.5-1-1.1-2.1-1.6-3.2l4.2 1.7c-6.9 3.2-13.9 6.1-20.9 8.9-7 2.8-14 5.5-21.1 8-14.1 5.1-28.4 9.6-42.8 13.7-14.4 4-28.9 7.5-43.5 10.3-7.3 1.4-14.6 2.7-22 3.7s-14.8 1.8-22.2 2.4c-7.4.6-14.8.9-22.3 1-7.4.1-14.9-.2-22.3-.8-7.4-.6-14.8-1.5-22.1-2.9-7.3-1.4-14.6-3.2-21.7-5.5-14.3-4.7-28-11.6-40.2-21.1-11.9-9.8-22.2-22.2-29.9-36.2z"/><path fill="#009444" d="M95.7 49.1l.5 1c.3.7.7 1.7 1.2 3 1 2.6 2.3 6.5 3.4 11.2.6 2.4 1.1 5 1.6 7.7.5 2.8.9 5.7 1.2 8.8.3 3.1.5 6.3.5 9.5 0 1.6 0 3.3-.1 4.9-.1 1.7-.2 3.3-.4 5-.1 1.7-.4 3.3-.6 5-.3 1.6-.6 3.3-1 4.9-.4 1.6-.7 3.2-1.3 4.7-.5 1.5-.9 3.1-1.5 4.5-.3.7-.6 1.4-.8 2.1-.3.7-.6 1.4-1 2-.3.7-.6 1.3-1 2-.4.6-.7 1.2-1.1 1.9-.4.6-.7 1.2-1 1.8-.4.6-.8 1.1-1.1 1.6l-1.1 1.6c-.4.5-.8 1-1.2 1.4-.4.5-.8.9-1.1 1.3-.4.4-.7.9-1.1 1.2l-2.2 2.1c-1.4 1.3-2.7 2.2-3.8 3.1-1.1.7-2 1.3-2.6 1.7l-.9.6s.3-.3.7-.8c.5-.5 1.2-1.3 2.1-2.3.8-1 1.9-2.3 3-3.8s2.3-3.2 3.4-5.2l.9-1.5.8-1.6c.3-.5.6-1.1.9-1.7l.8-1.8.8-1.8.7-1.9.7-1.9c.2-.7.4-1.4.6-2 .9-2.7 1.5-5.6 2.2-8.6l.8-4.5.6-4.6c.2-1.5.3-3.1.4-4.7.1-1.6.2-3.1.2-4.6l.1-4.6c0-1.5 0-3-.1-4.5-.1-3-.2-5.8-.4-8.5s-.4-5.3-.7-7.7c-.3-2.4-.5-4.6-.7-6.5-.3-1.9-.5-3.6-.7-5-.2-1.4-.4-2.5-.5-3.2 0-.9-.1-1.3-.1-1.3zM70.8 78.6c5.8 0 5.8-10 0-10s-5.8 10 0 10z"/></svg>