<?xml version="1.0" encoding="utf-8"?>
<!-- Generator: Adobe Illustrator 18.1.1, SVG Export Plug-In . SVG Version: 6.00 Build 0)  -->
<!DOCTYPE svg PUBLIC "-//W3C//DTD SVG 1.1//EN" "http://www.w3.org/Graphics/SVG/1.1/DTD/svg11.dtd">
<svg version="1.1" id="Layer_1" xmlns="http://www.w3.org/2000/svg" xmlns:xlink="http://www.w3.org/1999/xlink" x="0px" y="0px"
	 width="402.6px" height="177.5px" viewBox="0 0 402.6 177.5" enable-background="new 0 0 402.6 177.5" xml:space="preserve">
<g>
	<g>
		<defs>
			<rect id="SVGID_1_" x="16.3" y="6.5" width="375.9" height="150.4"/>
		</defs>
		<clipPath id="SVGID_2_">
			<use xlink:href="#SVGID_1_"  overflow="visible"/>
		</clipPath>
		<path clip-path="url(#SVGID_2_)" fill="#009444" d="M16.3,90.6c4.1,6.9,8.8,13.3,14,19.1c5.2,5.8,10.9,11.1,17,15.6
			c6.1,4.5,12.6,8.4,19.3,11.6c6.7,3.2,13.7,5.9,20.7,8c7.1,2.1,14.3,3.7,21.5,4.9c7.2,1.2,14.6,1.9,21.9,2.3
			c7.3,0.4,14.7,0.5,22,0.3c7.3-0.2,14.7-0.7,22-1.4c7.3-0.7,14.6-1.7,21.9-2.8c7.3-1.2,14.5-2.5,21.7-4c14.4-3,28.8-6.7,43-10.9
			c14.2-4.2,28.3-9,42.3-14.1c7-2.6,13.9-5.3,20.8-8.1c6.9-2.8,13.8-5.8,20.5-8.9l4.2,1.7c0.4,0.9,0.8,1.7,1.3,2.6l1.5,2.6l1.7,2.6
			c0.6,0.9,1.2,1.7,1.8,2.5c0.6,0.8,1.2,1.7,1.8,2.5c0.6,0.8,1.2,1.7,1.9,2.5c1.3,1.6,2.5,3.3,3.8,4.9c1.3,1.6,2.6,3.2,3.9,4.8
			c1.3,1.6,2.7,3.2,4,4.7l4.1,4.7c1.4,1.5,2.8,3.1,4.1,4.6l-5.3,4.8c-0.9-1.7-1.8-3.5-2.5-5.3l-0.5-1.4c-0.2-0.5-0.3-0.9-0.5-1.4
			c-0.3-0.9-0.6-1.9-0.8-2.8l-0.7-2.9c-0.2-1-0.3-1.9-0.5-2.9c-0.2-1-0.2-1.9-0.3-2.9l-0.1-1.5c0-0.5,0-1-0.1-1.5
			c0-1-0.1-1.9-0.1-2.9l0-2.9c0.1-1.9,0.2-3.9,0.4-5.7c0.2-1.9,0.5-3.8,0.8-5.7l0.5-2.8c0.2-0.9,0.4-1.8,0.6-2.8
			c1.6-7.3,4-14.4,6.7-21.2c1.4-3.4,2.9-6.7,4.5-10c0.8-1.6,1.6-3.3,2.5-4.9c0.9-1.6,1.7-3.2,2.7-4.8l6,4.1c-1.7,3.5-4,6.3-6.4,8.7
			c-2.4,2.4-5,4.4-7.7,6.2c-5.3,3.6-10.9,6.4-16.5,8.8c-2.8,1.2-5.7,2.3-8.5,3.4c-1.4,0.5-2.9,1-4.3,1.5l-1.1,0.3
			c-0.4,0.1-0.8,0.2-1.1,0.3l-2.2,0.6c-5.8,1.6-11.8,2.8-17.7,3.8c-5.9,0.9-11.9,1.7-17.8,2.1c-6,0.5-11.9,0.7-17.9,0.7
			c-3,0-6,0-8.9-0.1c-3,0-5.9-0.2-8.9-0.3c-3-0.1-5.9-0.4-8.9-0.5c-3-0.3-5.9-0.4-8.9-0.8c-5.9-0.5-11.8-1.2-17.7-1.9
			c-5.9-0.7-11.8-1.4-17.7-2.5c-5.9-1-11.9-2.3-17.7-4.2c-5.8-2-11.7-4.6-17-8.6c-2.6-2-5.1-4.5-7.2-7.3c-2.1-2.8-3.8-6.1-4.9-9.5
			l-0.8-2.6l-0.6-2.7c-0.2-0.9-0.2-1.8-0.4-2.7c0-0.5-0.1-0.9-0.1-1.4l-0.1-1.4l-0.1-1.4l0-0.7l0-0.6l0.1-2.5l0-0.3l0-0.2l0-0.1
			l0-0.2l0.1-0.7l0.1-1.3c0.1-0.9,0.2-1.7,0.3-2.6c1-6.7,2.4-13.2,4.3-19.7c1-3.2,2.1-6.5,3.5-9.6c0.7-1.6,1.6-3.2,2.6-4.7
			c1.1-1.5,2.4-3.2,4.7-4.2l2,6.1c-5.6,2.2-11,4.4-16.4,6.9c-5.4,2.5-10.6,5.2-15.6,8.5c-4.9,3.2-9.6,7-13.5,11.5
			c-0.5,0.6-1,1.1-1.4,1.7l-1.3,1.7l-0.6,0.9c-0.2,0.3-0.4,0.7-0.6,1l-1.2,2l-0.2,0.3l-0.1,0.1l0,0.1c0,0-0.1,0.2,0-0.1l-0.2,0.4
			l-0.4,0.9c-0.2,0.6-0.5,1.2-0.6,1.9c-0.4,1.3-0.5,2.8-0.6,4.2c-0.1,5.8,1.8,12,4.9,16.9c1.6,2.4,3.5,4.6,5.6,6
			c1.1,0.7,2.2,1.2,3.3,1.4c1.1,0.2,2.2,0,3.3-0.4c1.1-0.4,2.1-1.2,3-2.1c0.2-0.2,0.4-0.5,0.6-0.7c0.2-0.3,0.4-0.4,0.6-0.8l0.7-1
			l0.3-0.5l0-0.1c0,0,0.1-0.1,0,0l0.1-0.1l0.1-0.2c0.6-1.1,0.9-2.2,0.9-3.5c0-1.2-0.3-2.5-0.9-3.8c-1.1-2.6-3-4.9-5-7
			c-2.1-2.1-4.4-3.9-6.9-5.5c-2.4-1.6-5-3-7.7-4c-1.3-0.5-2.5-0.9-4-1l-4.3-0.5c-5.8-0.5-11.6-0.5-17.4-0.1
			c-5.8,0.5-11.6,1.4-17.4,2.6c-5.7,1.2-11.4,2.9-17,4.8C67.9,59.1,57,64.2,46.5,70.2c-5.3,3-10.4,6.1-15.5,9.5
			C26,83.1,21,86.7,16.3,90.6L16.3,90.6z M16.3,90.6c4.6-4.1,9.5-7.8,14.4-11.4c5-3.6,10-7,15.2-10.1c10.4-6.3,21.2-11.7,32.5-16
			c5.6-2.1,11.3-4,17.1-5.4c5.8-1.4,11.7-2.5,17.6-3.1c5.9-0.6,11.9-0.7,17.9-0.3l4.5,0.4c1.5,0.1,3.2,0.5,4.7,1.1
			c3,1.1,5.8,2.5,8.4,4.2c2.7,1.7,5.2,3.6,7.6,5.9c2.3,2.3,4.6,4.9,6.1,8.2c0.8,1.7,1.3,3.6,1.4,5.7c0.1,2.1-0.5,4.2-1.4,5.9
			l-0.2,0.3l-0.1,0.2l-0.1,0.2l-0.3,0.5l-0.6,1c-0.5,0.7-1.1,1.5-1.7,2.1c-1.2,1.3-2.7,2.5-4.4,3.2c-1.7,0.7-3.6,0.9-5.4,0.7
			c-1.8-0.2-3.5-1-5-1.9c-3-1.8-5.3-4.5-7.2-7.3c-1.9-2.9-3.4-6.1-4.4-9.4c-1.1-3.4-1.7-7-1.6-10.6c0.1-1.8,0.2-3.7,0.7-5.6
			c0.2-0.9,0.6-1.8,0.8-2.7c0.2-0.4,0.4-0.9,0.6-1.3l0.3-0.6l0.4-0.6l1.2-2.1c0.2-0.3,0.4-0.7,0.6-1l0.8-1.1l1.5-2.1
			c0.5-0.7,1.1-1.3,1.6-1.9c4.3-5,9.3-9.1,14.4-12.6c5.2-3.5,10.6-6.4,16.1-9.1c5.5-2.6,11.1-5,16.6-7.3l2,6.1c-0.5,0.2-1.3,1-2,2.1
			c-0.7,1.1-1.4,2.4-2,3.7c-1.2,2.7-2.2,5.7-3.1,8.7c-1.7,6.1-3,12.4-4,18.7c-0.1,0.8-0.2,1.6-0.3,2.3l-0.1,1.1l0,0.5l0,0.1l0,0.1
			c0,0.1,0-0.1,0-0.1l0,0.3l-0.1,2.5l0,0.6l0,0.5l0.1,1.1c0.2,2.9,0.6,5.9,1.6,8.6c1.8,5.4,5.4,10,9.8,13.4
			c4.5,3.4,9.7,5.7,15.2,7.5c5.5,1.7,11.1,2.9,16.9,3.9c5.7,0.9,11.6,1.6,17.4,2.3c5.9,0.7,11.7,1.4,17.5,1.9
			c2.9,0.3,5.8,0.5,8.8,0.7c2.9,0.2,5.8,0.4,8.8,0.5c2.9,0.1,5.8,0.3,8.8,0.3c2.9,0.1,5.8,0.1,8.7,0.1c5.8-0.1,11.6-0.3,17.4-0.8
			c5.8-0.4,11.6-1.2,17.3-2.1c5.7-1,11.4-2.1,17-3.7l2.1-0.6c0.4-0.1,0.7-0.2,1-0.3l1-0.3c1.4-0.4,2.7-0.9,4.1-1.4
			c2.7-1,5.5-2,8.1-3.2c5.4-2.3,10.6-4.9,15.4-8.2c2.4-1.6,4.7-3.4,6.7-5.3c2-2,3.7-4.1,4.8-6.4l6,4.1c-0.8,1.4-1.7,2.9-2.5,4.4
			c-0.8,1.5-1.6,3.1-2.3,4.6c-1.5,3.1-2.9,6.3-4.3,9.5c-2.6,6.4-4.8,13.1-6.4,19.9c-0.2,0.8-0.4,1.7-0.5,2.5l-0.5,2.6
			c-0.3,1.7-0.6,3.4-0.7,5.1c-0.2,1.7-0.3,3.4-0.4,5.1l0,2.6c0,0.9,0.1,1.7,0.1,2.5c0,0.4,0,0.8,0.1,1.3l0.1,1.3
			c0.1,0.8,0.1,1.7,0.3,2.5l0.4,2.5l0.6,2.4c0.2,0.8,0.5,1.6,0.7,2.3c0.1,0.4,0.2,0.8,0.4,1.2l0.5,1.1c0.5,1.5,1.3,2.9,2,4.4
			l-5.3,4.8c-1.4-1.6-2.8-3.1-4.2-4.7l-4.1-4.8c-1.4-1.6-2.7-3.2-4.1-4.9c-1.3-1.6-2.7-3.3-4-4.9c-1.3-1.7-2.6-3.3-3.9-5.1
			c-0.7-0.8-1.3-1.7-1.9-2.6c-0.6-0.9-1.3-1.7-1.9-2.6c-0.6-0.9-1.2-1.8-1.8-2.7l-1.8-2.8l-1.7-2.9c-0.5-1-1.1-2.1-1.6-3.2l4.2,1.7
			c-6.9,3.2-13.9,6.1-20.9,8.9c-7,2.8-14,5.5-21.1,8c-14.1,5.1-28.4,9.6-42.8,13.7c-14.4,4-28.9,7.5-43.5,10.3
			c-7.3,1.4-14.6,2.7-22,3.7c-7.4,1-14.8,1.8-22.2,2.4c-7.4,0.6-14.8,0.9-22.3,1c-7.4,0.1-14.9-0.2-22.3-0.8
			c-7.4-0.6-14.8-1.5-22.1-2.9c-7.3-1.4-14.6-3.2-21.7-5.5c-14.3-4.7-28-11.6-40.2-21.1C34.3,117,24,104.6,16.3,90.6L16.3,90.6z"/>
	</g>
	<path fill="#009444" d="M95.7,49.1c0,0,0.2,0.4,0.5,1c0.3,0.7,0.7,1.7,1.2,3c1,2.6,2.3,6.5,3.4,11.2c0.6,2.4,1.1,5,1.6,7.7
		c0.5,2.8,0.9,5.7,1.2,8.8c0.3,3.1,0.5,6.3,0.5,9.5c0,1.6,0,3.3-0.1,4.9c-0.1,1.7-0.2,3.3-0.4,5c-0.1,1.7-0.4,3.3-0.6,5
		c-0.3,1.6-0.6,3.3-1,4.9c-0.4,1.6-0.7,3.2-1.3,4.7c-0.5,1.5-0.9,3.1-1.5,4.5c-0.3,0.7-0.6,1.4-0.8,2.1c-0.3,0.7-0.6,1.4-1,2
		c-0.3,0.7-0.6,1.3-1,2c-0.4,0.6-0.7,1.2-1.1,1.9c-0.4,0.6-0.7,1.2-1,1.8c-0.4,0.6-0.8,1.1-1.1,1.6c-0.4,0.5-0.7,1.1-1.1,1.6
		c-0.4,0.5-0.8,1-1.2,1.4c-0.4,0.5-0.8,0.9-1.1,1.3c-0.4,0.4-0.7,0.9-1.1,1.2c-0.8,0.7-1.5,1.5-2.2,2.1c-1.4,1.3-2.7,2.2-3.8,3.1
		c-1.1,0.7-2,1.3-2.6,1.7c-0.6,0.4-0.9,0.6-0.9,0.6s0.3-0.3,0.7-0.8c0.5-0.5,1.2-1.3,2.1-2.3c0.8-1,1.9-2.3,3-3.8
		c1.1-1.5,2.3-3.2,3.4-5.2c0.3-0.5,0.6-1,0.9-1.5c0.3-0.5,0.5-1.1,0.8-1.6c0.3-0.5,0.6-1.1,0.9-1.7c0.3-0.6,0.5-1.2,0.8-1.8
		c0.3-0.6,0.5-1.2,0.8-1.8c0.2-0.6,0.5-1.3,0.7-1.9c0.2-0.6,0.5-1.3,0.7-1.9c0.2-0.7,0.4-1.4,0.6-2c0.9-2.7,1.5-5.6,2.2-8.6
		c0.3-1.5,0.5-3,0.8-4.5c0.2-1.5,0.4-3.1,0.6-4.6c0.2-1.5,0.3-3.1,0.4-4.7c0.1-1.6,0.2-3.1,0.2-4.6c0.1-1.5,0-3.1,0.1-4.6
		c0-1.5,0-3-0.1-4.5c-0.1-3-0.2-5.8-0.4-8.5c-0.2-2.7-0.4-5.3-0.7-7.7c-0.3-2.4-0.5-4.6-0.7-6.5c-0.3-1.9-0.5-3.6-0.7-5
		c-0.2-1.4-0.4-2.5-0.5-3.2C95.8,49.5,95.7,49.1,95.7,49.1L95.7,49.1z"/>
	<path fill="#009444" d="M70.8,78.6c5.8,0,5.8-10,0-10C65,68.6,65,78.6,70.8,78.6L70.8,78.6L70.8,78.6z"/>
</g>
</svg>
